<svg xmlns="http://www.w3.org/2000/svg" width="30" height="30" viewBox="0 0 30 30"><path d="M0,15V2.9A2.63,2.63,0,0,1,1.5.3,3.08,3.08,0,0,1,2.8,0H27.2a2.55,2.55,0,0,1,2.5,1.5A3.53,3.53,0,0,1,30,2.9V27.2a2.5,2.5,0,0,1-1.5,2.5,3.19,3.19,0,0,1-1.4.3H2.8A2.71,2.71,0,0,1,.3,28.5,3.93,3.93,0,0,1,0,27.1Zm16.5-2.2v-.9a.78.78,0,0,0-.7-.9H12.4a.82.82,0,0,0-.9.8h0V25.7a.89.89,0,0,0,.8,1h3.3a.75.75,0,0,0,.9-.7h0V18.7c0-.4.1-.8.1-1.2a3.51,3.51,0,0,1,.6-1.4,2.35,2.35,0,0,1,2.2-1,2.25,2.25,0,0,1,2.1,1.6,5.82,5.82,0,0,1,.3,1.9v7.3a.78.78,0,0,0,.6.9H26a.81.81,0,0,0,.9-.9V18.5a24.52,24.52,0,0,0-.2-2.7,5.23,5.23,0,0,0-1-2.7A4.72,4.72,0,0,0,22.5,11a6.61,6.61,0,0,0-2.8,0,5.23,5.23,0,0,0-2.3,1c-.3.1-.6.5-.9.8Zm-12.2,6v6.9a.87.87,0,0,0,.7,1H8.4a.82.82,0,0,0,.9-.8h0V11.8a.74.74,0,0,0-.8-.8H5.3c-.7,0-1,.3-1,1ZM3.6,6.5A3.25,3.25,0,1,0,6.9,3.2,3.33,3.33,0,0,0,3.6,6.5Z" style="fill:#8f9eb9"/></svg>